PathFileType	4	(X/Y/Z)	C:/Users/beibeiliu/ov580/test_trc/User1\sequence.13_training_dense_right.trc
DataRate	CameraRate	NumFrames	NumMarkers	Units	OrigDataRate	OrigDataStartFrame	OrigNumFrames
120	120	20	19	mm	120	277	316
Frame#	Time	ThumbCMC			ThumbMCP			ThumbIP			ThumbTip			IndexMCP			IndexPIP			IndexTip			MiddleMCP			MiddlePIP			MiddleTip			RingMCP			RingPIP			RingTip			PinkyMCP			PinkyPIP			PinkyTip			BackHand1			BackHand2			BackHand3	
		X0	Y0	Z0	X1	Y1	Z1	X2	Y2	Z2	X3	Y3	Z3	X4	Y4	Z4	X5	Y5	Z5	X6	Y6	Z6	X7	Y7	Z7	X8	Y8	Z8	X9	Y9	Z9	X10	Y10	Z10	X11	Y11	Z11	X12	Y12	Z12	X13	Y13	Z13	X14	Y14	Z14	X15	Y15	Z15	X16	Y16	Z16	X17	Y17	Z17	X18	Y18	Z18	
276	2.3	214.852	0.425465	52.9022	204.745	29.7	26.1391	197.131	41.6801	0.521569	181.216	47.1357	-23.2181	221.694	-4.83375	-29.339	199.21	19.1264	-40.7681	188.302	27.8289	-5.09341	212.573	-35.9809	-36.105	212.661	-30.4736	-69.6953	208.371	-23.2879	-95.406	190.26	-53.7909	-33.2335	191.294	-56.595	-61.4683	188.498	-54.3052	-82.7349	156.706	-55.4272	-16.394	148.101	-59.1312	-34.8242	141.336	-71.0758	-52.1935	188.447	-55.2721	20.2622	184.075	-62.5171	57.3697	214.253	-41.8943	38.8037	
277	2.30833	214.165	-0.278147	47.5867	202.419	26.2571	24.7418	193.31	40.0643	-0.938154	176.97	44.7036	-17.1276	216.771	-2.50297	-32.2194	198.44	22.3261	-39.9456	184.91	26.0005	-3.2281	207.686	-36.3796	-37.811	207.98	-29.7384	-66.6781	200.802	-20.7905	-100.187	187.724	-51.6455	-32.3109	184.753	-56.3527	-57.4941	185.21	-51.2249	-86.4769	152.395	-54.1734	-11.8852	140.747	-60.0767	-31.2897	137.856	-67.9095	-52.6299	186.682	-56.089	21.5941	187.683	-62.9487	57.7884	218.663	-40.1553	39.2315	
278	2.31667	214.518	3.70598	49.0877	198.19	28.2765	25.1567	186.818	42.0395	2.57161	167.619	46.7064	-17.1303	212.053	1.30163	-31.8315	189.255	25.4781	-38.2058	177.83	29.3472	-6.91796	198.321	-34.2632	-39.523	199.391	-26.065	-66.0567	192.301	-16.2162	-95.4119	181.472	-48.9655	-31.701	177.342	-52.2857	-58.0774	171.147	-47.9424	-83.6887	147.784	-53.1288	-8.08486	135.396	-57.8141	-23.493	127.67	-68.3486	-47.8984	184.405	-54.3827	22.0528	185.926	-64.6639	58.007	216.656	-37.9283	37.981	
279	2.325	210.469	5.09144	50.641	192.114	33.2751	30.2296	178.971	47.526	8.76411	158.402	50.6416	-8.16757	198.189	2.71132	-32.2996	175.976	27.2789	-36.8731	168.95	37.9069	-7.12731	188.254	-29.0605	-38.0691	183.541	-21.0265	-68.7826	175.155	-11.146	-92.5365	171.469	-45.1201	-28.9735	164.839	-47.7712	-56.2306	156.762	-44.8674	-78.6928	137.51	-51.5103	-2.66177	125.367	-54.7243	-18.7876	118.418	-64.5404	-41.6636	178.987	-54.8208	27.0892	188.166	-60.5471	56.187	212.261	-37.563	36.9515	
280	2.33333	204.874	9.39575	51.3844	183.769	34.8996	33.3869	164.762	46.7498	8.84166	142.785	53.6249	-4.75531	184.112	5.06066	-31.1407	161.275	31.8953	-36.3323	155.532	41.2564	-3.35039	174.167	-23.5855	-41.718	165.638	-16.4256	-64.1658	153.539	-5.23763	-92.6396	159.247	-40.4967	-29.3968	152.681	-42.2744	-52.1135	139.393	-41.8056	-77.1133	131.97	-49.3005	0.839316	114.613	-53.5912	-14.1987	104.729	-60.636	-36.1481	174.737	-50.2944	22.6444	183.618	-58.9468	55.2873	205.523	-31.0886	32.6985	
281	2.34167	200.411	10.2231	46.8893	176.394	37.0154	29.6103	157.288	46.3111	10.3921	134.659	55.644	-1.74106	176.236	6.28628	-31.2097	153.034	31.4465	-37.0227	142.567	39.5275	-5.73393	166.922	-24.4504	-38.2256	158.887	-12.5402	-67.6138	141.641	-5.9256	-90.3918	150.1	-42.8986	-23.0517	142.67	-42.9247	-52.9868	131.726	-39.9941	-77.5275	125.839	-49.3571	2.39294	109.955	-52.6044	-11.2808	94.2088	-63.9661	-29.8792	170.444	-48.3663	24.2073	182.569	-55.9905	54.7544	202.743	-29.614	31.8355	
282	2.35	198.877	11.1114	43.7972	175	38.6994	28.1475	156.125	47.3872	11.082	133.148	52.6968	-2.46388	174.222	9.35433	-34.9304	147.195	26.7804	-37.5821	139.062	35.3475	-3.90707	163.848	-27.3791	-42.0239	155.302	-17.5527	-69.0162	140.445	-7.96516	-93.697	149.415	-45.0916	-28.8222	141.234	-46.6578	-53.36	132.199	-44.2963	-76.7801	124.951	-52.4082	2.61564	107.216	-56.5268	-13.3387	96.6365	-64.797	-32.5332	169.506	-53.2984	24.5488	183.462	-56.2799	57.0277	202.514	-30.6285	29.2526	
283	2.35833	198.349	8.59659	42.6026	174.331	34.1897	23.4511	156.339	43.1226	5.46652	135.17	47.0333	-8.94155	180.19	3.51619	-34.6715	150.452	25.6415	-38.373	143.319	34.1525	-5.35207	170.735	-30.4541	-39.9126	160.016	-23.364	-69.5903	145.582	-14.075	-95.4935	152.071	-51.1363	-26.379	146.383	-52.7395	-55.5655	137.789	-52.0246	-77.561	125.808	-55.5098	2.46855	110.502	-59.7601	-11.9793	101.296	-66.0228	-32.4213	170.146	-53.167	24.1137	179.625	-59.9982	57.1796	202.98	-33.4822	31.566	
284	2.36667	200.157	5.2434	43.0619	179.565	32.4733	20.595	165.88	42.5409	2.6134	141.381	47.7323	-18.4931	189.263	0.0104488	-34.9212	162.871	22.9129	-43.2936	152.416	31.7275	-9.44535	179.439	-34.5161	-42.2351	172.764	-26.8003	-73.0807	160.167	-15.4807	-99.4968	162.34	-54.7274	-29.5584	157.437	-58.1158	-54.2845	152.806	-56.6052	-82.7021	132.847	-56.4303	-6.55082	120.216	-61.0469	-23.448	111.195	-69.374	-39.3045	170.895	-56.0323	23.7739	181.822	-60.5704	59.0027	203.223	-38.7619	34.6389	
285	2.375	204.155	1.94143	40.3623	185.583	25.6196	17.2503	175.353	38.6987	-3.86169	155.9	42.2075	-24.3792	201.416	-4.95291	-36.0701	175.226	15.3257	-45.2161	164.099	26.8867	-14.4068	193.298	-38.896	-40.2627	188.652	-31.3168	-73.2096	177.449	-22.7004	-99.3497	172.582	-59.1904	-30.668	174.074	-63.146	-54.4352	168.311	-64.7688	-82.9423	139.554	-61.6529	-10.1423	131.176	-66.3592	-28.5355	125.449	-76.326	-44.138	180.076	-57.6485	24.6972	182.042	-60.8587	54.4953	208.624	-39.0637	37.9436	
286	2.38333	208.097	-0.96937	40.9135	194.301	23.9048	14.411	186.265	35.6462	-9.08769	169.997	39.5704	-31.6105	213.352	-13.9085	-35.2906	193.694	8.30887	-48.5972	177.201	21.987	-19.9964	205.21	-47.4841	-42.4936	203.809	-42.5279	-69.7336	200.709	-28.0963	-100.489	186.746	-64.8368	-30.3582	190.868	-69.4899	-57.1762	190.215	-69.3898	-80.1181	150.731	-64.4159	-10.7544	144.933	-70.3191	-30.0607	140.504	-83.365	-51.8132	182.188	-60.8851	25.56	182.613	-61.9946	58.3911	214.972	-42.2203	39.4829	
287	2.39167	214.242	-0.542126	45.6415	201.113	21.2573	14.8564	196.896	31.4189	-10.3894	182.615	31.6153	-34.3258	227.45	-19.6645	-31.7648	210.511	4.80679	-49.0431	186.836	17.3122	-21.2151	220.343	-50.8198	-34.1043	222.595	-48.8414	-64.612	222.281	-36.8928	-98.8964	194.831	-69.7081	-27.0287	205.38	-75.2886	-55.4153	207.463	-80.0181	-82.1943	159.752	-69.3446	-15.3473	155.308	-77.1912	-35.7986	158.574	-86.2785	-50.6902	186.929	-66.1028	26.2727	183.356	-64.2283	55.7802	217.7	-42.2836	43.0271	
288	2.4	215.616	0.737946	48.2522	206.929	21.7864	12.8257	201.446	28.0564	-14.9765	188.997	30.0072	-40.071	235.211	-23.3619	-29.3357	219.271	-3.13312	-49.6992	193.769	13.7324	-26.4382	230.464	-56.6394	-33.4753	234.944	-54.5989	-62.5278	239.605	-46.2368	-90.5359	206.737	-69.7726	-22.2658	215.813	-79.436	-49.6443	224.587	-81.2267	-76.1879	169.049	-73.608	-16.4351	165.242	-81.6372	-30.2994	170.925	-94.8064	-54.9517	192.708	-65.2895	30.2351	189.886	-63.3679	58.4691	216.309	-44.9045	46.9056	
289	2.40833	216.184	-0.146971	47.6822	207.073	21.3181	15.3974	203.041	29.883	-12.001	191.719	26.0865	-36.03	243.646	-22.3701	-24.0503	226.017	-6.25999	-48.4219	202.214	12.8021	-35.5652	238.636	-55.4455	-25.672	243.87	-57.6563	-54.1927	249.06	-53.1964	-86.06	215.385	-73.1671	-21.8677	225.589	-83.0857	-46.5688	231.798	-85.5003	-71.1789	176.573	-77.6624	-15.674	178.173	-84.3914	-32.5757	180.149	-97.7231	-47.3884	193.055	-66.1532	30.8639	186.471	-64.9307	62.0929	222.239	-44.5942	49.5124	
290	2.41667	214.178	2.81466	48.9181	202.985	19.7512	12.1007	199.769	23.1006	-16.6141	191.018	22.7748	-41.7082	245.976	-18.9085	-24.2686	226.721	-4.8786	-48.7894	201.477	9.806	-40.1031	242.547	-54.9744	-25.2485	252.041	-54.5004	-52.5455	257.437	-51.5835	-83.5485	220.951	-70.8981	-16.275	232.718	-80.4786	-43.1091	242.209	-81.8046	-67.0453	181.053	-77.8389	-8.67106	186.984	-86.1803	-30.1455	188.838	-104.522	-45.0853	197.831	-66.7812	31.9173	189.975	-64.5305	63.1564	223.329	-41.973	50.9418	
291	2.425	206.53	3.39653	47.1416	194.38	21.2015	11.8976	190.504	19.6786	-14.4903	182.563	20.8031	-42.482	241.285	-15.4435	-21.6911	224.263	-3.90663	-46.4171	194.619	14.0505	-38.9377	241.316	-49.8533	-19.9046	253.043	-47.1558	-49.1355	259.398	-43.8791	-78.2578	226.487	-68.4368	-16.4289	237.352	-73.9507	-37.0358	247.939	-73.4748	-64.5809	187.26	-78.0988	-6.97342	192.13	-88.9878	-25.983	199.893	-104.769	-40.5451	203.288	-63.8716	34.9664	194.089	-59.7911	63.5071	220.768	-37.4424	56.5371	
292	2.43333	195.733	8.06719	48.4105	179.788	20.1037	14.517	177.226	19.9361	-18.9262	169.772	17.3226	-43.3519	234.726	-8.2122	-19.6697	216.39	0.619827	-47.0486	184.929	12.787	-39.6516	242.427	-39.5193	-21.2265	251.069	-36.9461	-46.4763	255.78	-36.5346	-80.112	228.282	-64.0868	-13.7221	243.561	-64.9896	-39.8609	248.665	-67.2482	-60.9672	196.078	-75.5544	-3.32288	202.598	-87.7653	-24.0425	215.682	-99.0773	-37.6285	207.75	-61.5531	34.0892	195.316	-60.478	69.0898	219.807	-29.3657	55.3623	
293	2.44167	184.977	10.9434	44.3865	167.285	11.7954	12.6979	162.37	13.8318	-14.6574	154.174	13.9894	-42.1479	225.321	-0.924123	-21.1381	202.288	4.67158	-48.3208	173.368	8.45155	-40.555	239.097	-29.6065	-19.8944	248.783	-21.7869	-51.2319	251.928	-20.6916	-78.7157	230.708	-53.0152	-12.3694	246.546	-55.9706	-38.746	254.432	-54.3899	-61.7876	205.369	-72.3447	-5.81366	212.248	-80.7663	-22.2371	225.357	-89.1631	-35.6775	208.169	-52.1335	37.9601	198.646	-56.0243	71.6005	214.174	-18.1906	56.8747	
294	2.45	170.736	10.0189	46.3272	152.665	11.3966	12.3259	148.086	10.3679	-12.9638	143.004	6.03734	-41.7732	213.469	6.58019	-22.679	190.074	8.29748	-50.2404	160.758	4.31573	-41.2023	233.733	-17.7983	-20.932	239.657	-12.2552	-53.1879	242.936	-9.53412	-81.7968	229.995	-40.8764	-9.34832	246.578	-42.3098	-38.1438	254.462	-38.8479	-61.5775	209.296	-70.6635	-1.41329	219.272	-77.6043	-19.8541	235.9	-77.1449	-36.3519	212.296	-46.4125	37.7324	199.531	-46.7809	72.1578	208.815	-12.6894	56.5982	
295	2.45833	156.557	9.04732	49.0732	142.109	5.24006	12.5602	137.191	6.06968	-14.5885	133.604	-0.214844	-41.8143	199.946	16.407	-21.764	178.328	9.63648	-50.646	148.075	-2.81526	-39.7337	223.738	-3.87849	-19.4507	229.589	1.39888	-48.9228	230.983	3.18716	-80.4058	228.847	-30.1735	-11.7612	242.12	-28.0967	-36.6891	250.331	-28.2847	-61.9362	215.923	-60.9927	-5.81941	225.294	-66.2088	-22.1325	238.218	-64.2206	-37.5185	208.42	-37.7167	38.372	201.893	-41.913	68.6347	199.928	-2.91794	53.6273	
